<svg xmlns="http://www.w3.org/2000/svg" width="18.663" height="18.663" viewBox="0 0 18.663 18.663">
  <path id="primary" d="M4.851,3V15.96m0,0A1.851,1.851,0,1,0,6.7,17.812,1.851,1.851,0,0,0,4.851,15.96ZM11.331,6.7v12.96M11.331,3a1.851,1.851,0,1,0,1.851,1.851A1.851,1.851,0,0,0,11.331,3Zm6.48,10.183v6.48m0-10.183V3m0,6.48a1.851,1.851,0,1,0,1.851,1.851A1.851,1.851,0,0,0,17.812,9.48Z" transform="translate(20.663 -2) rotate(90)" fill="none" stroke="#0b162d" stroke-linecap="round" stroke-linejoin="round" stroke-width="2"/>
</svg>
