<svg xmlns="http://www.w3.org/2000/svg" width="15.805" height="12.811" viewBox="0 0 15.805 12.811">
  <path id="Path_2917" data-name="Path 2917" d="M7.6,66.666H8.942v-2.23a.447.447,0,0,1,.778-.3l4.471,4.906a.445.445,0,0,1,0,.6L9.72,74.548a.45.45,0,0,1-.331.146.463.463,0,0,1-.162-.029.447.447,0,0,1-.285-.417v-2.23H7.7a10.71,10.71,0,0,0-6.96,2.569A.447.447,0,0,1,0,74.248,7.6,7.6,0,0,1,7.6,66.666Zm.1,4.46H9.389a.447.447,0,0,1,.447.446V73.1l3.419-3.753L9.836,65.589v1.523a.447.447,0,0,1-.447.446H7.6a6.7,6.7,0,0,0-6.636,5.72A11.621,11.621,0,0,1,7.7,71.126Z" transform="translate(-10.01 -60.964) rotate(-9)" fill="#7e7e7e"/>
</svg>
