<svg xmlns="http://www.w3.org/2000/svg" width="19.455" height="19.436" viewBox="0 0 19.455 19.436">
  <path id="clock" d="M9.727,19.685A9.727,9.727,0,1,1,16.606,3.08,9.743,9.743,0,0,1,9.727,19.685Zm0-17.935A8.217,8.217,0,0,0,1.52,9.958c.451,10.888,15.966,10.885,16.415,0A8.217,8.217,0,0,0,9.727,1.751Zm3.539,10.672-2.4-2.4a1.14,1.14,0,0,0-.379-.913c0-.008,0-.016,0-.024V4.639a.76.76,0,0,0-1.52,0V9.084c0,.008,0,.016,0,.024A1.142,1.142,0,0,0,9.791,11.1l2.4,2.4a.76.76,0,0,0,1.075-1.075Z" transform="translate(0 -0.25)" fill="#7e7e7e"/>
</svg>
