<svg xmlns="http://www.w3.org/2000/svg" width="18.871" height="18.871" viewBox="0 0 18.871 18.871">
  <g id="quality" transform="translate(0 -0.003)">
    <path id="Path_2918" data-name="Path 2918" d="M97.118,91.06a6.08,6.08,0,1,0,6.08,6.08A6.087,6.087,0,0,0,97.118,91.06Zm0,11.055a4.975,4.975,0,1,1,4.975-4.975A4.98,4.98,0,0,1,97.118,102.115Z" transform="translate(-87.683 -87.702)" fill="#7e7e7e"/>
    <path id="Path_2919" data-name="Path 2919" d="M171.727,196.221l-2.926,2.926-1.82-1.82a.553.553,0,0,0-.782.782l2.211,2.211a.553.553,0,0,0,.782,0L172.508,197a.553.553,0,1,0-.782-.782Z" transform="translate(-159.919 -188.832)" fill="#7e7e7e"/>
    <path id="Path_2920" data-name="Path 2920" d="M18.08,5.563,16.15,4.407l-.433-1.793a1.651,1.651,0,0,0-1.74-1.264l-2.2.17L10.51.4A1.651,1.651,0,0,0,8.36.4L7.091,1.52l-2.2-.17A1.651,1.651,0,0,0,3.158,2.594l-.6,1.92L.792,5.563A1.651,1.651,0,0,0,.127,7.608L.879,9.43.127,11.253A1.651,1.651,0,0,0,.792,13.3l1.927,1.148.435,1.8a1.65,1.65,0,0,0,1.609,1.269c.117,0-.014,0,2.306-.173L8.36,18.476a1.651,1.651,0,0,0,2.151,0L11.8,17.343l2.175.168a1.652,1.652,0,0,0,1.74-1.264l.433-1.793c2.36-1.413,1.86-1.112,1.931-1.156a1.651,1.651,0,0,0,.665-2.045L17.993,9.43l.752-1.822a1.651,1.651,0,0,0-.665-2.045Zm-1.2,4.079.839,2.033a.55.55,0,0,1-.219.68l-2.121,1.269a.553.553,0,0,0-.253.345l-.487,2.019a.55.55,0,0,1-.58.421l-2.407-.186a.553.553,0,0,0-.407.136L9.791,17.636a.55.55,0,0,1-.712,0L7.623,16.358a.553.553,0,0,0-.407-.136l-2.407.186a.55.55,0,0,1-.58-.421l-.489-2.026a.553.553,0,0,0-.254-.345L1.368,12.355a.55.55,0,0,1-.219-.68l.839-2.033a.553.553,0,0,0,0-.422L1.149,7.186a.55.55,0,0,1,.219-.68L3.3,5.357a.553.553,0,0,0,.245-.31c.713-2.273.673-2.14.681-2.174a.55.55,0,0,1,.58-.421l2.431.188A.553.553,0,0,0,7.647,2.5L9.08,1.239a.55.55,0,0,1,.711,0L11.223,2.5a.553.553,0,0,0,.408.137l2.431-.188a.551.551,0,0,1,.58.421l.487,2.018a.553.553,0,0,0,.253.345L17.5,6.506a.55.55,0,0,1,.219.68l-.839,2.033a.553.553,0,0,0,0,.422Z" transform="translate(0 0)" fill="#7e7e7e"/>
  </g>
</svg>
