<svg xmlns="http://www.w3.org/2000/svg" width="16.555" height="19.712" viewBox="0 0 16.555 19.712">
  <path id="Path_2916" data-name="Path 2916" d="M57.549,12.705a1.928,1.928,0,0,0-1.54-1.886V8.74a.578.578,0,0,0-.78-.541l-1.1.413a6.733,6.733,0,0,0-2.568-1.667,3.85,3.85,0,1,0-4.575,0,6.733,6.733,0,0,0-2.568,1.667l-1.1-.413a.578.578,0,0,0-.78.541v2.079a1.925,1.925,0,0,0,0,3.773v2.233a.578.578,0,0,0,.375.541l6.16,2.31a.584.584,0,0,0,.406,0l6.16-2.31a.578.578,0,0,0,.375-.541V14.592A1.928,1.928,0,0,0,57.549,12.705ZM46.577,3.85a2.7,2.7,0,1,1,2.7,2.7A2.7,2.7,0,0,1,46.577,3.85Zm2.7,3.85a5.574,5.574,0,0,1,3.654,1.363l-3.654,1.37-3.654-1.37A5.574,5.574,0,0,1,49.272,7.7Zm-7.123,5.005a.771.771,0,0,1,.77-.77H43.3v1.54h-.385A.771.771,0,0,1,42.149,12.705Zm1.54,1.906a.964.964,0,0,0,.77-.943V11.743a.964.964,0,0,0-.77-.943V9.573l5.005,1.877V18.3l-5.005-1.877Zm6.16,3.691V11.45l5.005-1.877V10.8a.964.964,0,0,0-.77.943v1.925a.964.964,0,0,0,.77.943v1.814Zm5.775-4.826h-.385v-1.54h.385a.77.77,0,1,1,0,1.54Z" transform="translate(-40.994)" fill="#7e7e7e"/>
</svg>
